<mxfile host="Electron" modified="2023-11-22T14:16:47.092Z" agent="Mozilla/5.0 (Windows NT 10.0; Win64; x64) AppleWebKit/537.36 (KHTML, like Gecko) draw.io/21.6.8 Chrome/114.0.5735.289 Electron/25.5.0 Safari/537.36" etag="DTsWnl6dLGpLqoUDe9Vk" version="21.6.8" type="device">
  <diagram id="C5RBs43oDa-KdzZeNtuy" name="Page-1">
    <mxGraphModel dx="1290" dy="1798" grid="1" gridSize="10" guides="1" tooltips="1" connect="1" arrows="1" fold="1" page="1" pageScale="1" pageWidth="827" pageHeight="1169" math="0" shadow="0">
      <root>
        <mxCell id="WIyWlLk6GJQsqaUBKTNV-0" />
        <mxCell id="WIyWlLk6GJQsqaUBKTNV-1" parent="WIyWlLk6GJQsqaUBKTNV-0" />
        <mxCell id="PtvGfc8u3fFPzmpzfyYF-7" value="MedicinalProductDefinition&amp;nbsp;&lt;br&gt;&lt;i style=&quot;border-color: var(--border-color);&quot;&gt;Stelbat Tablets, 20mg&lt;/i&gt;" style="rounded=1;whiteSpace=wrap;html=1;fontSize=12;glass=0;strokeWidth=1;shadow=0;fillColor=#ffe699;" parent="WIyWlLk6GJQsqaUBKTNV-1" vertex="1">
          <mxGeometry x="80" y="-1080" width="156" height="40" as="geometry" />
        </mxCell>
        <mxCell id="Kh6UWCqLEouyqFOK7ntM-8" value="" style="endArrow=classic;html=1;rounded=0;exitX=0;exitY=0.5;exitDx=0;exitDy=0;entryX=0.5;entryY=1;entryDx=0;entryDy=0;" parent="WIyWlLk6GJQsqaUBKTNV-1" source="bwwu2G-xtIND38kB5rFb-0" target="PtvGfc8u3fFPzmpzfyYF-7" edge="1">
          <mxGeometry width="50" height="50" relative="1" as="geometry">
            <mxPoint x="251" y="-930" as="sourcePoint" />
            <mxPoint x="80" y="-1020" as="targetPoint" />
          </mxGeometry>
        </mxCell>
        <mxCell id="bwwu2G-xtIND38kB5rFb-1" value="pacakage for" style="edgeLabel;html=1;align=center;verticalAlign=middle;resizable=0;points=[];" vertex="1" connectable="0" parent="Kh6UWCqLEouyqFOK7ntM-8">
          <mxGeometry x="0.06" y="8" relative="1" as="geometry">
            <mxPoint as="offset" />
          </mxGeometry>
        </mxCell>
        <mxCell id="bwwu2G-xtIND38kB5rFb-6" value="" style="edgeStyle=orthogonalEdgeStyle;rounded=0;orthogonalLoop=1;jettySize=auto;html=1;" edge="1" parent="WIyWlLk6GJQsqaUBKTNV-1" source="Kh6UWCqLEouyqFOK7ntM-25" target="PtvGfc8u3fFPzmpzfyYF-7">
          <mxGeometry relative="1" as="geometry" />
        </mxCell>
        <mxCell id="Kh6UWCqLEouyqFOK7ntM-25" value="Ingredient&lt;br&gt;(excipient)" style="rounded=1;whiteSpace=wrap;html=1;fontSize=12;glass=0;strokeWidth=1;shadow=0;fillColor=#f8cecc;strokeColor=#b85450;" parent="WIyWlLk6GJQsqaUBKTNV-1" vertex="1">
          <mxGeometry x="300" y="-1080" width="120" height="40" as="geometry" />
        </mxCell>
        <mxCell id="Kh6UWCqLEouyqFOK7ntM-26" value="for" style="endArrow=classic;html=1;rounded=0;exitX=0;exitY=0.5;exitDx=0;exitDy=0;" parent="WIyWlLk6GJQsqaUBKTNV-1" source="Kh6UWCqLEouyqFOK7ntM-25" target="PtvGfc8u3fFPzmpzfyYF-7" edge="1">
          <mxGeometry x="-0.0625" y="-10" width="50" height="50" relative="1" as="geometry">
            <mxPoint x="281.43000000000006" y="-990" as="sourcePoint" />
            <mxPoint x="240" y="-1060" as="targetPoint" />
            <mxPoint as="offset" />
          </mxGeometry>
        </mxCell>
        <mxCell id="IEeFdyCGopTc3gh3-DFE-2" value="SubstanceDefinition&lt;br&gt;&lt;i style=&quot;border-color: var(--border-color);&quot;&gt;Mannitol&lt;/i&gt;" style="rounded=1;whiteSpace=wrap;html=1;fontSize=12;glass=0;strokeWidth=1;shadow=0;fillColor=#c1f0da;strokeColor=#9ebda2;" parent="WIyWlLk6GJQsqaUBKTNV-1" vertex="1">
          <mxGeometry x="460" y="-1080" width="150" height="40" as="geometry" />
        </mxCell>
        <mxCell id="IEeFdyCGopTc3gh3-DFE-3" value="" style="endArrow=classic;html=1;rounded=0;exitX=1;exitY=0.5;exitDx=0;exitDy=0;" parent="WIyWlLk6GJQsqaUBKTNV-1" source="Kh6UWCqLEouyqFOK7ntM-25" edge="1">
          <mxGeometry x="-0.3333" y="-2" width="50" height="50" relative="1" as="geometry">
            <mxPoint x="310" y="-1050" as="sourcePoint" />
            <mxPoint x="460" y="-1060" as="targetPoint" />
            <mxPoint as="offset" />
          </mxGeometry>
        </mxCell>
        <mxCell id="bwwu2G-xtIND38kB5rFb-0" value="PackagedProductDefinition - &lt;i&gt;Description of Container Closure&lt;/i&gt;" style="rounded=1;whiteSpace=wrap;html=1;fontSize=12;glass=0;strokeWidth=1;shadow=0;fillColor=#b6d7a8;strokeColor=#82b366;" vertex="1" parent="WIyWlLk6GJQsqaUBKTNV-1">
          <mxGeometry x="260" y="-970" width="160" height="55" as="geometry" />
        </mxCell>
        <mxCell id="bwwu2G-xtIND38kB5rFb-2" value="Ingredient&lt;br&gt;(active)" style="rounded=1;whiteSpace=wrap;html=1;fontSize=12;glass=0;strokeWidth=1;shadow=0;fillColor=#f8cecc;strokeColor=#b85450;" vertex="1" parent="WIyWlLk6GJQsqaUBKTNV-1">
          <mxGeometry x="300" y="-1130" width="120" height="40" as="geometry" />
        </mxCell>
        <mxCell id="bwwu2G-xtIND38kB5rFb-3" value="SubstanceDefinition&lt;br&gt;&lt;i style=&quot;border-color: var(--border-color);&quot;&gt;Stelbatolol&lt;/i&gt;" style="rounded=1;whiteSpace=wrap;html=1;fontSize=12;glass=0;strokeWidth=1;shadow=0;fillColor=#c1f0da;strokeColor=#9ebda2;" vertex="1" parent="WIyWlLk6GJQsqaUBKTNV-1">
          <mxGeometry x="460" y="-1130" width="150" height="40" as="geometry" />
        </mxCell>
        <mxCell id="bwwu2G-xtIND38kB5rFb-4" value="Ingredient&lt;br&gt;(excipient)" style="rounded=1;whiteSpace=wrap;html=1;fontSize=12;glass=0;strokeWidth=1;shadow=0;fillColor=#f8cecc;strokeColor=#b85450;" vertex="1" parent="WIyWlLk6GJQsqaUBKTNV-1">
          <mxGeometry x="300" y="-1030" width="120" height="40" as="geometry" />
        </mxCell>
        <mxCell id="bwwu2G-xtIND38kB5rFb-5" value="SubstanceDefinition&lt;br&gt;&lt;i&gt;Maize Starch&lt;/i&gt;" style="rounded=1;whiteSpace=wrap;html=1;fontSize=12;glass=0;strokeWidth=1;shadow=0;fillColor=#c1f0da;strokeColor=#9ebda2;" vertex="1" parent="WIyWlLk6GJQsqaUBKTNV-1">
          <mxGeometry x="460" y="-1030" width="150" height="40" as="geometry" />
        </mxCell>
        <mxCell id="bwwu2G-xtIND38kB5rFb-7" value="for" style="endArrow=classic;html=1;rounded=0;exitX=0;exitY=0.5;exitDx=0;exitDy=0;entryX=1;entryY=0.25;entryDx=0;entryDy=0;" edge="1" parent="WIyWlLk6GJQsqaUBKTNV-1" source="bwwu2G-xtIND38kB5rFb-2" target="PtvGfc8u3fFPzmpzfyYF-7">
          <mxGeometry x="-0.0625" y="-10" width="50" height="50" relative="1" as="geometry">
            <mxPoint x="310" y="-1050" as="sourcePoint" />
            <mxPoint x="240" y="-1060" as="targetPoint" />
            <mxPoint as="offset" />
          </mxGeometry>
        </mxCell>
        <mxCell id="bwwu2G-xtIND38kB5rFb-8" value="for" style="endArrow=classic;html=1;rounded=0;exitX=0;exitY=0.5;exitDx=0;exitDy=0;entryX=1;entryY=0.75;entryDx=0;entryDy=0;" edge="1" parent="WIyWlLk6GJQsqaUBKTNV-1" source="bwwu2G-xtIND38kB5rFb-4" target="PtvGfc8u3fFPzmpzfyYF-7">
          <mxGeometry x="-0.0625" y="-10" width="50" height="50" relative="1" as="geometry">
            <mxPoint x="310" y="-1100" as="sourcePoint" />
            <mxPoint x="246" y="-1060" as="targetPoint" />
            <mxPoint as="offset" />
          </mxGeometry>
        </mxCell>
        <mxCell id="bwwu2G-xtIND38kB5rFb-9" value="" style="endArrow=classic;html=1;rounded=0;exitX=1;exitY=0.5;exitDx=0;exitDy=0;entryX=0;entryY=0.5;entryDx=0;entryDy=0;" edge="1" parent="WIyWlLk6GJQsqaUBKTNV-1" source="bwwu2G-xtIND38kB5rFb-2" target="bwwu2G-xtIND38kB5rFb-3">
          <mxGeometry x="-0.3333" y="-2" width="50" height="50" relative="1" as="geometry">
            <mxPoint x="430" y="-1050" as="sourcePoint" />
            <mxPoint x="470" y="-1050" as="targetPoint" />
            <mxPoint as="offset" />
          </mxGeometry>
        </mxCell>
        <mxCell id="bwwu2G-xtIND38kB5rFb-10" value="" style="endArrow=classic;html=1;rounded=0;exitX=1;exitY=0.5;exitDx=0;exitDy=0;entryX=0;entryY=0.5;entryDx=0;entryDy=0;" edge="1" parent="WIyWlLk6GJQsqaUBKTNV-1" source="bwwu2G-xtIND38kB5rFb-4" target="bwwu2G-xtIND38kB5rFb-5">
          <mxGeometry x="-0.3333" y="-2" width="50" height="50" relative="1" as="geometry">
            <mxPoint x="430" y="-1100" as="sourcePoint" />
            <mxPoint x="470" y="-1100" as="targetPoint" />
            <mxPoint as="offset" />
          </mxGeometry>
        </mxCell>
      </root>
    </mxGraphModel>
  </diagram>
</mxfile>
